<?xml version="1.0" encoding="UTF-8" standalone="no"?>
<!-- Created with Inkscape (http://www.inkscape.org/) -->

<svg
   xmlns:dc="http://purl.org/dc/elements/1.1/"
   xmlns:cc="http://creativecommons.org/ns#"
   xmlns:rdf="http://www.w3.org/1999/02/22-rdf-syntax-ns#"
   xmlns:svg="http://www.w3.org/2000/svg"
   xmlns="http://www.w3.org/2000/svg"
   xmlns:sodipodi="http://sodipodi.sourceforge.net/DTD/sodipodi-0.dtd"
   xmlns:inkscape="http://www.inkscape.org/namespaces/inkscape"
   version="1.1"
   id="svg946"
   width="240"
   height="118.66667"
   viewBox="0 0 240 118.66667"
   sodipodi:docname="favico.svg"
   inkscape:version="0.92.3 (2405546, 2018-03-11)"
   inkscape:export-filename="/var/www/html/irina/imgs/logoN.png"
   inkscape:export-xdpi="699.79999"
   inkscape:export-ydpi="699.79999">
  <metadata
     id="metadata952">
    <rdf:RDF>
      <cc:Work
         rdf:about="">
        <dc:format>image/svg+xml</dc:format>
        <dc:type
           rdf:resource="http://purl.org/dc/dcmitype/StillImage" />
        <dc:title></dc:title>
      </cc:Work>
    </rdf:RDF>
  </metadata>
  <defs
     id="defs950" />
  <sodipodi:namedview
     pagecolor="#ffffff"
     bordercolor="#666666"
     borderopacity="1"
     objecttolerance="10"
     gridtolerance="10"
     guidetolerance="10"
     inkscape:pageopacity="0"
     inkscape:pageshadow="2"
     inkscape:window-width="1920"
     inkscape:window-height="1046"
     id="namedview948"
     showgrid="false"
     inkscape:zoom="4.3251365"
     inkscape:cx="103.65765"
     inkscape:cy="66.61486"
     inkscape:window-x="0"
     inkscape:window-y="0"
     inkscape:window-maximized="1"
     inkscape:current-layer="svg946" />
  <path
     style="fill:#ff0000;fill-opacity:1;stroke-width:1.33333337"
     d="m 67.654297,25.359375 c -4.52911,0 -5.921875,0.49976 -5.921875,2.125 0,1.16866 1.201309,2.438726 2.667969,2.822266 3.72049,0.97293 3.356575,2.452008 -1.896485,7.705078 -5.3451,5.345102 -7.027804,13.924785 -5.552734,28.322265 1.09863,10.7233 1.300252,17.67733 9.291016,22.357422 8.039178,4.708448 2.405909,9.417412 -8.519532,7.363282 5.485549,8.119132 10.640692,4.892422 19.265625,5.304692 5.196681,0.0344 11.41211,0.49325 11.41211,-2.525396 -3.228783,-2.186319 -7.129683,-3.389343 -9.486329,-2.544922 -0.01838,-0.03019 -0.02793,-0.05756 -0.04687,-0.08789 -1.397541,-2.23782 -1.020383,-3.285426 2.710937,-7.535156 2.38378,-2.71497 5.031706,-6.519879 5.884766,-8.455078 2.958888,-9.498482 4.232077,-16.422322 3.684216,-21.362948 -0.422975,-3.814392 -1.964416,-5.819298 -4.447888,-10.822599 -0.41132,0 -2.007765,-2.037004 -3.546875,-4.527344 -1.53912,-2.49034 -4.247711,-4.893191 -6.019532,-5.337891 -3.76149,-0.94407 -5.636161,-5.439625 -3.394531,-8.140625 2.48223,-2.99089 0.301736,-4.660156 -6.083984,-4.660156 z m -0.921875,16.666016 0.763672,7.333984 c 0.41987,4.03333 1.295925,12.732031 1.947265,19.332031 0.65133,6.6 0.740296,13.201299 0.197266,14.667969 C 54.586579,76.675282 60.47011,44.065223 66.732422,42.025391 Z m 8.074219,2 c 0.79429,0 3.007812,1.35 4.919921,3 2.89947,2.50201 7.14471,7.382355 6.642861,14.299339 -0.501849,6.916984 -2.564212,14.347019 -6.609657,20.399879 -2.01154,2.87188 -2.027929,2.863951 -2.136719,-1.068359 -0.10392,-3.75659 -0.307721,-5.512609 -1.931641,-16.630859 -1.96739,-13.46984 -2.256215,-20 -0.884765,-20 z"
     id="path1499"
     inkscape:connector-curvature="0"
     sodipodi:nodetypes="sssssscccccscsccccscccccsszccss" />
</svg>
