<?xml version="1.0" encoding="UTF-8" standalone="no"?>
<!-- Created with Inkscape (http://www.inkscape.org/) -->

<svg
   xmlns:dc="http://purl.org/dc/elements/1.1/"
   xmlns:cc="http://creativecommons.org/ns#"
   xmlns:rdf="http://www.w3.org/1999/02/22-rdf-syntax-ns#"
   xmlns:svg="http://www.w3.org/2000/svg"
   xmlns="http://www.w3.org/2000/svg"
   xmlns:sodipodi="http://sodipodi.sourceforge.net/DTD/sodipodi-0.dtd"
   xmlns:inkscape="http://www.inkscape.org/namespaces/inkscape"
   version="1.1"
   id="svg946"
   width="240"
   height="118.66667"
   viewBox="0 0 240 118.66667"
   sodipodi:docname="logo.svg"
   inkscape:version="0.92.3 (2405546, 2018-03-11)"
   inkscape:export-filename="/var/www/html/irina/imgs/logoN.png"
   inkscape:export-xdpi="699.79999"
   inkscape:export-ydpi="699.79999">
  <metadata
     id="metadata952">
    <rdf:RDF>
      <cc:Work
         rdf:about="">
        <dc:format>image/svg+xml</dc:format>
        <dc:type
           rdf:resource="http://purl.org/dc/dcmitype/StillImage" />
        <dc:title></dc:title>
      </cc:Work>
    </rdf:RDF>
  </metadata>
  <defs
     id="defs950" />
  <sodipodi:namedview
     pagecolor="#ffffff"
     bordercolor="#666666"
     borderopacity="1"
     objecttolerance="10"
     gridtolerance="10"
     guidetolerance="10"
     inkscape:pageopacity="0"
     inkscape:pageshadow="2"
     inkscape:window-width="1217"
     inkscape:window-height="563"
     id="namedview948"
     showgrid="false"
     inkscape:zoom="1.5291667"
     inkscape:cx="90.108311"
     inkscape:cy="95.181735"
     inkscape:window-x="539"
     inkscape:window-y="369"
     inkscape:window-maximized="0"
     inkscape:current-layer="svg946" />
  <path
     style="fill:#ff0000;stroke-width:1.33333337;fill-opacity:1"
     d="M 67.654297 25.359375 C 63.125187 25.359375 61.732422 25.859135 61.732422 27.484375 C 61.732422 28.653035 62.933731 29.923101 64.400391 30.306641 C 68.120881 31.279571 67.756966 32.758649 62.503906 38.011719 C 57.158806 43.356821 55.476102 51.936504 56.951172 66.333984 C 58.049802 77.057284 58.251424 84.011314 66.242188 88.691406 C 74.281366 93.399854 68.648097 98.108818 57.722656 96.054688 C 63.208205 104.17382 68.363348 100.94711 76.988281 101.35938 C 82.184962 101.39382 88.400391 101.85263 88.400391 98.833984 C 85.171608 96.647665 81.270708 95.444641 78.914062 96.289062 C 78.895687 96.258876 78.886132 96.231507 78.867188 96.201172 C 77.469647 93.963352 77.846805 92.915746 81.578125 88.666016 C 83.961905 85.951046 86.609831 82.146137 87.462891 80.210938 C 88.922081 76.900728 89.039449 77.105896 89.443359 83.691406 C 89.760989 88.870196 90.398441 90.691406 91.894531 90.691406 C 93.531921 90.691406 93.85465 89.001278 93.59375 81.804688 C 93.3211 74.283837 93.623901 72.863748 95.556641 72.580078 C 97.576521 72.283628 97.738232 73.154588 96.951172 80.111328 C 96.199782 86.752728 96.406899 88.112474 98.287109 88.833984 C 99.512009 89.304024 100.69085 89.463383 100.90625 89.189453 C 101.12164 88.915523 101.02505 84.285401 100.69141 78.900391 C 100.11081 69.529411 99.919898 69.053544 96.242188 67.771484 C 94.128797 67.034754 92.377763 65.440116 92.351562 64.228516 C 92.029493 49.353406 90.445951 32.504657 89.300781 31.779297 C 86.511801 30.012727 85.795897 32.230209 86.617188 40.087891 C 87.073498 44.453761 87.110539 48.025391 86.699219 48.025391 C 86.287899 48.025391 84.691454 45.988387 83.152344 43.498047 C 81.613224 41.007707 78.904633 38.604856 77.132812 38.160156 C 73.371322 37.216086 71.496651 32.720531 73.738281 30.019531 C 76.220511 27.028641 74.040017 25.359375 67.654297 25.359375 z M 197.12695 40.447266 C 196.92168 40.453724 196.64702 40.678032 196.30859 41 C 194.92686 42.31454 190.94877 64.200036 189.28711 79.628906 C 189.11319 81.243766 188.54357 82.993548 188.01953 83.517578 C 187.4955 84.041608 187.06641 85.868968 187.06641 87.580078 C 187.06641 89.741188 187.83468 90.691406 189.58398 90.691406 C 191.40637 90.691406 192.34497 89.402491 192.97852 86.025391 C 194.12681 79.904501 198.44094 79.479285 199.73242 85.359375 C 200.40502 88.421685 201.34796 89.359375 203.75 89.359375 C 205.71654 89.359375 207.20194 88.362806 207.73242 86.691406 C 208.19793 85.224736 209.0064 84.025391 209.52734 84.025391 C 211.73342 84.025391 215.45006 90.138246 215.35156 93.603516 C 217.49268 101.34994 217.75378 85.651346 221.05078 88.037109 C 225.01865 85.287509 224.97491 75.347255 222.4043 71.251953 C 220.25363 67.825681 219.07527 63.301726 219.07227 61.603516 C 219.09523 56.18586 216.87058 54.632678 214.21484 60.460938 C 216.34808 63.716677 214.2176 66.744478 211.1875 68.617188 C 210.43019 69.085228 209.41599 72.443558 208.93359 76.080078 C 207.96074 83.413788 207.06475 84.009186 203.2168 79.878906 C 200.43135 76.889066 200.78718 73.359375 203.875 73.359375 C 206.23528 73.359375 206.28677 70.144458 203.95703 68.210938 C 202.63929 67.117317 201.52039 67.236215 199.62305 68.671875 C 195.26595 71.968745 194.65982 71.012475 195.625 62.359375 C 197.61954 44.477461 198.01649 40.419281 197.12695 40.447266 z M 66.732422 42.025391 L 67.496094 49.359375 C 67.915964 53.392705 68.792019 62.091406 69.443359 68.691406 C 70.094689 75.291406 70.183655 81.892705 69.640625 83.359375 C 68.772995 85.702795 68.396537 85.424346 66.529297 81.072266 C 63.649147 74.359396 62.700022 53.457218 64.982422 46.986328 L 66.732422 42.025391 z M 74.806641 44.025391 C 75.600931 44.025391 77.814453 45.375391 79.726562 47.025391 C 82.626032 49.527401 83.282425 51.371139 83.671875 58.136719 C 83.928705 62.598419 83.609191 69.079593 82.962891 72.539062 C 82.316591 75.998532 80.874856 80.132609 79.759766 81.724609 C 77.748226 84.596489 77.731837 84.58856 77.623047 80.65625 C 77.519127 76.89966 77.315326 75.143641 75.691406 64.025391 C 73.724016 50.555551 73.435191 44.025391 74.806641 44.025391 z M 122.52148 60.509766 C 121.4532 60.506959 120.43998 61.679926 121.12305 62.785156 C 121.54496 63.467816 122.45448 64.025391 123.14453 64.025391 C 124.57799 64.025391 124.81458 62.218882 123.54688 60.951172 C 123.23907 60.643369 122.87758 60.510701 122.52148 60.509766 z M 107.66211 68.644531 C 103.75073 68.486923 103.11146 70.812836 103.08398 80.359375 C 103.071 84.871575 103.59605 86.691406 104.91016 86.691406 C 106.9175 86.691406 108.35216 82.742469 108.38086 77.136719 C 108.40086 73.229379 110.02481 72.196163 114.73047 73.095703 C 117.68095 73.659723 117.78647 74.062128 116.93945 81.548828 C 116.1554 88.478978 116.30704 89.310059 118.22461 88.574219 C 119.42091 88.115159 120.44585 87.055007 120.50195 86.216797 C 120.55806 85.378597 120.83007 83.492061 121.10742 82.025391 C 122.68274 73.694871 122.1881 70.231491 119.56445 71.238281 C 118.3715 71.696061 116.72019 71.517957 115.89648 70.841797 C 115.07276 70.165647 112.21577 69.269219 109.54688 68.849609 C 108.8468 68.739539 108.22088 68.667047 107.66211 68.644531 z M 134.52148 69.732422 C 130.98681 69.767627 126.44936 70.819039 125.72461 72.191406 C 125.19188 73.200156 124.36354 77.53001 123.88477 81.8125 C 122.78434 91.65556 125.6106 91.743991 127.68555 81.931641 C 128.83462 76.497711 129.63014 75.28014 132.27148 74.90625 C 135.36897 74.46778 135.44126 74.661534 134.66211 81.240234 C 134.04678 86.435744 134.27832 88.025391 135.65234 88.025391 C 137.67188 88.025391 139.43144 84.691256 139.52344 80.691406 C 139.5942 77.614026 141.42936 75.992047 143.80664 76.904297 C 144.90516 77.325837 145.22059 79.28726 144.75195 82.78125 C 144.22574 86.70442 144.51241 88.014122 145.89062 87.982422 C 148.40217 87.924612 152.56479 84.635104 151.48828 83.558594 C 151.00981 83.080134 150.56987 80.139138 150.50977 77.023438 L 150.40039 71.359375 L 145.06641 71.333984 C 142.13308 71.320254 139.07356 70.890056 138.26758 70.378906 C 137.52754 69.909588 136.12816 69.71642 134.52148 69.732422 z M 163.02539 70.064453 C 162.16458 70.042675 161.32589 70.196113 160.62305 70.572266 C 156.58243 72.734736 155.11257 75.316054 154.22266 81.808594 C 153.65665 85.938154 153.93138 88.659013 155.05078 90.007812 C 157.03239 92.395513 161.18248 92.663094 162.52539 90.490234 C 163.04832 89.644104 162.3354 88.122692 160.9375 87.101562 C 157.55478 84.630612 157.31299 80.025391 160.56641 80.025391 C 163.50365 80.025391 168.40039 76.118751 168.40039 73.775391 C 168.40039 71.778268 165.60783 70.129787 163.02539 70.064453 z M 178.68555 71.054688 C 178.30831 71.061967 177.91129 71.079488 177.49414 71.107422 L 171.82227 71.488281 L 169.96875 79.087891 C 168.94858 83.268181 168.47376 87.627981 168.91406 88.775391 C 170.17525 92.061991 172.08451 89.841551 173.08398 83.925781 C 173.58754 80.945231 174.86528 78.173778 175.92383 77.767578 C 178.74339 76.685608 179.16222 77.704833 177.82227 82.376953 C 176.4878 87.029943 178.76124 90.272543 182.38281 88.882812 C 184.64996 88.012832 185.11712 84.487611 183.05664 83.800781 C 182.18368 83.509791 182.26059 81.90729 183.27539 79.21875 C 185.545 73.205878 184.34414 70.945494 178.68555 71.054688 z M 217.9082 71.884766 C 218.68675 72.056859 219.35578 73.942803 219.52539 77.455078 C 219.63926 79.813028 218.69127 84.184195 217.8418 84.484375 C 215.61155 85.272525 214.89265 80.69701 215.63672 76.59375 C 216.24253 73.25288 217.12966 71.712672 217.9082 71.884766 z M 162.41211 72.490234 C 162.85948 72.447114 163.29824 72.653681 163.62695 73.185547 C 164.03621 73.847747 163.47669 75.130889 162.38477 76.037109 C 160.77054 77.376799 160.40039 77.296482 160.40039 75.601562 C 160.40039 73.890251 161.42789 72.585098 162.41211 72.490234 z "
     id="path1499" />
</svg>
